<svg version="1.1" xmlns="http://www.w3.org/2000/svg" xmlns:xlink="http://www.w3.org/1999/xlink" width="750" height="750" viewBox="0,0,750,750">
    <rect x="0" y="0" width="750" height="750" fill="white" />
    <circle cx="375" cy="303" r="52" fill="transparent" stroke="black" stroke-width="1" stroke-linecap="round" stroke-dasharray="0 10 0" stroke-dashoffset="100" stroke-mitterlimit="0" id="circle1"/>
    <line x1="375" y1="27" x2="375" y2="243" stroke="black" stroke-width="1" stroke-dasharray="0 10 0" id="line1"/>
    <line x1="377" y1="354" x2="377" y2="570" stroke="black" stroke-width="1" stroke-dasharray="0 10 0" id="line2"/>
    <text x="357" y="294" fill="black" id="text1">Game</text>
    <text x="339" y="318" fill="black" id="text2">Schedule</text>
    <polyline points="438 297 498 297 488 287 498 297 488 307" stroke="black" fill="transparent" stroke-width="1" id="polyline1"/>
    <polyline points="309 297 250 297 260 287 250 297 260 307" stroke="black" fill="transparent" stroke-width="1" id="polyline2"/>
    <rect rx="0" ry="0" x="508" y="271" width="86" height="65" stroke="black" fill="transparent" stroke-width="1" id="rect1"/>
    <text x="513" y="307" fill="black" id="text3">Schedule</text>
    <line x1="599" y1="301" x2="643" y2="301" stroke="black" stroke-width="1" id="line3"/>
    <polyline points="644 301 644 376 634 366 644 376 654 366" stroke="black" fill="transparent" stroke-width="1" id="polyline3"/>
    <text x="650" y="312" fill="black" id="text4">(matchup)</text>
    <rect rx="0" ry="0" x="623" y="385" width="113" height="44" stroke="black" fill="transparent" stroke-width="1" id="rect2"/>
    <text x="629" y="410" fill="black" id="text5">Client Set</text>
    <polyline points="515 343 515 386 505 376 515 386 525 376" stroke="black" fill="transparent" stroke-width="1" id="polyline4"/>
    <rect rx="0" ry="0" x="468" y="395" width="91" height="52" stroke="black" fill="transparent" stroke-width="1" id="rect3"/>
    <text x="482" y="425" fill="black" id="text6">Client</text>
    <text x="416" y="367" fill="black" id="text7">scheduling</text>
    <text x="417" y="383" fill="black" id="text8">client</text>
    <polyline points="591 416 558 416 568 406 558 416 568 426" stroke="black" fill="transparent" stroke-width="1" id="polyline5"/>
    <polyline points="560 416 610 416 600 406 610 416 600 426" stroke="black" fill="transparent" stroke-width="1" id="polyline6"/>
    <polyline points="604 416 623 416 613 406 623 416 613 426" stroke="black" fill="transparent" stroke-width="1" id="polyline7"/>
    <rect rx="0" ry="0" x="181" y="272" width="68" height="51" stroke="black" fill="transparent" stroke-width="1" id="rect4"/>
    <text x="195" y="300" fill="black" id="text9">Game</text>
    <rect rx="0" ry="0" x="152" y="114" width="124" height="64" stroke="black" fill="transparent" stroke-width="1" id="rect5"/>
    <text x="188" y="137" fill="black" id="text10">Game</text>
    <text x="171" y="157" fill="black" id="text11">Template</text>
    <line x1="133" y1="154" x2="76" y2="183" stroke="black" stroke-width="1" id="line4"/>
    <line x1="93" y1="187" x2="93" y2="199" stroke="black" stroke-width="1" id="line5"/>
    <line x1="109" y1="181" x2="109" y2="207" stroke="black" stroke-width="1" id="line6"/>
    <line x1="76" y1="186" x2="76" y2="208" stroke="black" stroke-width="1" id="line7"/>
    <text x="80" y="223" fill="black" id="text12">generates...</text>
    <polyline points="193 383 193 326 183 336 193 326 203 336" stroke="black" fill="transparent" stroke-width="1" id="polyline8"/>
    <polyline points="193 361 193 386 183 376 193 386 203 376" stroke="black" fill="transparent" stroke-width="1" id="polyline9"/>
    <polyline points="193 362 193 401 183 391 193 401 203 391" stroke="black" fill="transparent" stroke-width="1" id="polyline10"/>
    <rect rx="0" ry="0" x="158" y="404" width="88" height="76" stroke="black" fill="transparent" stroke-width="1" id="rect6"/>
    <text x="162" y="425" fill="black" id="text13">Player</text>
    <text x="166" y="440" fill="black" id="text14">(1)</text>
    <text x="166" y="454" fill="black" id="text15">(2)</text>
    <text x="166" y="467" fill="black" id="text16">(3)</text>
    <rect rx="0" ry="0" x="36" y="411" width="73" height="82" stroke="black" fill="transparent" stroke-width="1" id="rect7"/>
    <text x="50" y="435" fill="black" id="text17">Save</text>
    <text x="42" y="461" fill="black" id="text18">* Data</text>
    <polyline points="142 473 110 473 120 463 110 473 120 483" stroke="black" fill="transparent" stroke-width="1" id="polyline11"/>
    <polyline points="129 473 157 473 147 463 157 473 147 483" stroke="black" fill="transparent" stroke-width="1" id="polyline12"/>
    <text x="410" y="401" fill="black" id="text19">(host)</text>
</svg>
